<mxfile host="app.diagrams.net" modified="2023-05-13T06:17:24.781Z" agent="Mozilla/5.0 (Windows NT 10.0; Win64; x64) AppleWebKit/537.36 (KHTML, like Gecko) Chrome/113.0.0.0 Safari/537.36" etag="YXiPqZA7wtYhDc0lHp5f" version="21.2.9">
  <diagram name="Page-1" id="MqEHJxqcGR0iH7Ui8UXM">
    <mxGraphModel dx="913" dy="-1698" grid="1" gridSize="10" guides="1" tooltips="1" connect="1" arrows="1" fold="1" page="1" pageScale="1" pageWidth="850" pageHeight="1100" math="0" shadow="0">
      <root>
        <mxCell id="0" />
        <mxCell id="1" parent="0" />
        <mxCell id="JPP7-0GU8lm2cm0_T6wu-133" value="publisher_id" style="rounded=0;whiteSpace=wrap;html=1;fontStyle=5;fontFamily=Courier New;labelBackgroundColor=none;" vertex="1" parent="1">
          <mxGeometry x="60" y="2640" width="120" height="60" as="geometry" />
        </mxCell>
        <mxCell id="JPP7-0GU8lm2cm0_T6wu-134" value="supplier_id" style="rounded=0;whiteSpace=wrap;html=1;fontStyle=5;fontFamily=Courier New;labelBackgroundColor=none;" vertex="1" parent="1">
          <mxGeometry x="180" y="2640" width="120" height="60" as="geometry" />
        </mxCell>
        <mxCell id="JPP7-0GU8lm2cm0_T6wu-135" value="book_ISBN" style="rounded=0;whiteSpace=wrap;html=1;fontFamily=Courier New;labelBackgroundColor=none;" vertex="1" parent="1">
          <mxGeometry x="300" y="2640" width="120" height="60" as="geometry" />
        </mxCell>
        <mxCell id="JPP7-0GU8lm2cm0_T6wu-136" value="amount" style="rounded=0;whiteSpace=wrap;html=1;fontFamily=Courier New;labelBackgroundColor=none;" vertex="1" parent="1">
          <mxGeometry x="420" y="2640" width="120" height="60" as="geometry" />
        </mxCell>
        <mxCell id="JPP7-0GU8lm2cm0_T6wu-137" value="" style="endArrow=none;html=1;rounded=0;exitX=0.5;exitY=0;exitDx=0;exitDy=0;" edge="1" parent="1" source="JPP7-0GU8lm2cm0_T6wu-133">
          <mxGeometry width="50" height="50" relative="1" as="geometry">
            <mxPoint x="340" y="2720" as="sourcePoint" />
            <mxPoint x="240" y="2600" as="targetPoint" />
            <Array as="points">
              <mxPoint x="120" y="2600" />
            </Array>
          </mxGeometry>
        </mxCell>
        <mxCell id="JPP7-0GU8lm2cm0_T6wu-138" value="" style="endArrow=none;html=1;rounded=0;exitX=0.5;exitY=0;exitDx=0;exitDy=0;" edge="1" parent="1" source="JPP7-0GU8lm2cm0_T6wu-134">
          <mxGeometry width="50" height="50" relative="1" as="geometry">
            <mxPoint x="340" y="2720" as="sourcePoint" />
            <mxPoint x="240" y="2600" as="targetPoint" />
          </mxGeometry>
        </mxCell>
        <mxCell id="JPP7-0GU8lm2cm0_T6wu-139" value="" style="edgeStyle=elbowEdgeStyle;elbow=vertical;endArrow=classic;html=1;curved=0;rounded=0;endSize=8;startSize=8;entryX=0.5;entryY=0;entryDx=0;entryDy=0;" edge="1" parent="1" target="JPP7-0GU8lm2cm0_T6wu-135">
          <mxGeometry width="50" height="50" relative="1" as="geometry">
            <mxPoint x="180" y="2600" as="sourcePoint" />
            <mxPoint x="390" y="2670" as="targetPoint" />
            <Array as="points">
              <mxPoint x="250" y="2560" />
            </Array>
          </mxGeometry>
        </mxCell>
        <mxCell id="JPP7-0GU8lm2cm0_T6wu-140" value="" style="edgeStyle=elbowEdgeStyle;elbow=vertical;endArrow=classic;html=1;curved=0;rounded=0;endSize=8;startSize=8;entryX=0.5;entryY=0;entryDx=0;entryDy=0;" edge="1" parent="1" target="JPP7-0GU8lm2cm0_T6wu-136">
          <mxGeometry width="50" height="50" relative="1" as="geometry">
            <mxPoint x="180" y="2600" as="sourcePoint" />
            <mxPoint x="370" y="2650" as="targetPoint" />
            <Array as="points">
              <mxPoint x="430" y="2560" />
            </Array>
          </mxGeometry>
        </mxCell>
      </root>
    </mxGraphModel>
  </diagram>
</mxfile>
